<?xml version="1.0" encoding="UTF-8"?>
<svg xmlns="http://www.w3.org/2000/svg" id="a" width="865.76" height="682.89" viewBox="0 0 865.76 682.89">
  <path d="M543.44,583.4s1.36,9.78-1.26,15.65l30.08-1.25s-2.95-9.41-5.08-18.39c0,0-13.86,3.19-23.73,3.99Z" fill="#f0b1bf" stroke="#002346" stroke-miterlimit="10"></path>
  <path d="M475.24,613.61h-64.68c-1.12,0-2.01-.96-1.91-2.08,.54-6.07,10.84-9.36,10.84-9.36,12.93-3.51,23.44-14.01,23.44-14.01,0,0,.01,0,.02-.01,.03-.02,.1-.05,.19-.1,1.22-.62,7.49-3.35,12.58,3.07,0,0,9.56,13.6,19.53,3.5,6.73,18.05,0,18.99,0,18.99Z" fill="#ff3700" stroke="#002346" stroke-miterlimit="10"></path>
  <path d="M539.68,615.14s-7.86-.6-2.12-10.11c0,0,2.33-4.45,6.18-8.6,5.98-6.44,15.6-7.78,23.11-3.22,5.24,3.18,10.54,8.83,9.89,18.56,0,0,.05,3.41-6.11,3.37h-30.95Z" fill="#ff3700" stroke="#002346" stroke-miterlimit="10"></path>
  <g>
    <path d="M475.24,594.62c-9.97,10.1-19.53-3.5-19.53-3.5-5.09-6.42-11.36-3.69-12.58-3.07-.09,.05-.16,.08-.19,.1,7.52-5.26,7.31-16.51,7.31-16.51l23.71,6.34,1.28,16.64Z" fill="#f0b1bf" stroke="#002346" stroke-miterlimit="10"></path>
    <path d="M575.8,579.89l-19.22-266.75s-42.86,9.64-93.65,0c0,0-9.13,121.75-13.13,193.75l-4.64,64.58,45.56,15.6c1.24-23.52,8.84-165.88,15.89-187.84l28.18,187.67,41-7Z" fill="#000000" stroke="#002346" stroke-miterlimit="10"></path>
    <path d="M566.48,241.52c-3.88,8.02-11.3,26.59-6.26,42.69,0,0,5.79,15.65-3.64,28.93,0,0-42.86,9.64-93.65,0,0,0-7.28-12.86-3.64-22.71,0,0,5.09-10.52,5.55-20.56,0-.1-.15-.13-.18-.04-.62,1.77-2.77,6.8-7.51,8.38,0,0-10.08,7.72-20.79-1.07,0,0-11.77-7.97-8.18-20.24,.48-1.63,1.31-3.14,2.3-4.53,1.03-1.44,2.53-4.1,2.66-7.59,0,0-.85-8.35,2.79-10.93,0,0,5.57-3.78,10.07-16.35l11.57-26.72,28.64-26.04,21.85,26.95,30.3-7.34,16.33,9.73c4.35,2.59,8.08,6.14,10.7,10.47,2.71,4.51,5.22,10.87,5.28,19.04,.05,6.22-1.49,12.34-4.19,17.93Z" fill="#ff3700" stroke="#002346" stroke-miterlimit="10"></path>
    <path d="M499.55,167.61l-13.34-2.87s-5.7,50.9,15.94,53.9c0,0,15.64-1.29,36.22-34.29l-15.78-10.89-23.03-5.86Z" fill="#fff" stroke="#002346" stroke-miterlimit="10"></path>
    <path d="M516.24,147.39s-.4,14.57,6.34,26.07l-13.97,16.27-3.09,10.96c-1.55,5.5-2.6,11.12-3.15,16.81h0s-1.97-3.45-1.64-12.98l-1.18-36.04,15.17-20.14s.73-.17,1.52-.95Z" fill="#f0b1bf" stroke="#002346" stroke-miterlimit="10"></path>
    <path d="M564.52,245.85s-19.78,34.27-33.48,44.45" fill="none" stroke="#002346" stroke-linecap="round" stroke-linejoin="round"></path>
    <path d="M528.93,220.51s-4.56,11.02-9.57,18.53c0,0-1.67,1.1-1.67,6.81,0,0,.83,4.04-4.17,5.71,0,0-4.51,1.53-4.51,5.86" fill="none" stroke="#002346" stroke-linecap="round" stroke-linejoin="round"></path>
    <path d="M532.88,218.64s17.6-17.93,31.17-16.13" fill="none" stroke="#002346" stroke-linecap="round" stroke-linejoin="round"></path>
    <path d="M452.93,201.49s9.32,17.85,23.85,24.37" fill="none" stroke="#002346" stroke-linecap="round" stroke-linejoin="round"></path>
    <line x1="479.95" y1="218.64" x2="471.94" y2="241.08" fill="none" stroke="#002346" stroke-linecap="round" stroke-linejoin="round"></line>
    <path d="M468.1,207.65s6.66,7.42,12.05,7.41c.56,0,1.03-.4,1.1-.95,.23-1.69-.54-6.02-9.32-14.8l-3.84,8.35Z" fill="#ff3700" stroke="#002346" stroke-miterlimit="10"></path>
    <path d="M485.63,184.12s-1.96,.13-3.07-3.03" fill="none" stroke="#231f20" stroke-miterlimit="10" stroke-width=".5"></path>
    <polyline points="508.61 189.73 520.29 200.29 532.88 181.09" fill="none" stroke="#002346" stroke-linecap="round" stroke-linejoin="round"></polyline>
    <path d="M492.17,181.88v15.2c0,.8,.98,1.18,1.52,.6l6.59-7.08" fill="none" stroke="#002346" stroke-linecap="round" stroke-linejoin="round"></path>
    <path d="M470.38,244.46l-5.72,25.38,4.14,1.05s4-12,7.15-23.58l-5.57-2.85Z" fill="#f0b1bf" stroke="#002346" stroke-miterlimit="10"></path>
    <path d="M497.48,336.07s3.14,32.29,9.14,63.15" fill="none" stroke="#002346" stroke-linecap="round" stroke-linejoin="round"></path>
    <rect x="548.06" y="476.83" width="266.67" height="9.95" transform="translate(1163.21 -199.59) rotate(90)" fill="#fff" stroke="#002346" stroke-miterlimit="10"></rect>
    <rect x="574.36" y="273.3" width="26.14" height="2.84" fill="#fff" stroke="#002346" stroke-miterlimit="10"></rect>
    <polygon points="573.51 279.5 576.78 318.53 597.52 318.53 601.36 279.5 573.51 279.5" fill="#000000" stroke="#002346" stroke-miterlimit="10"></polygon>
    <polygon points="574.21 287.88 600.51 287.88 598.53 308.23 575.92 308.23 574.21 287.88" fill="#fff" stroke="#002346" stroke-miterlimit="10"></polygon>
    <polygon points="648.92 208.73 716.72 257.34 668.06 308.45 660.79 308.45 709 257.43 648.92 216 648.92 208.73" fill="#e5e5e5" stroke="#002346" stroke-miterlimit="10"></polygon>
    <path d="M698.68,244.4v31.98l18.04-19.05-18.04-12.93Zm4.14,8.76l6.19,4.27-5.73,6.07-.46-10.34Z" fill="#ff3700" stroke="#002346" stroke-miterlimit="10"></path>
    <path d="M643.54,204.24s-5.18-6.8-1.61-10.2c1.26-1.2,3.15-1.57,4.79-.99,1.54,.54,3.49,1.9,4.71,5.22,.53,1.45,1.23,2.83,2.08,4.12,1.31,2.01,2.64,5.53-.47,9.29" fill="none" stroke="#002346" stroke-linecap="round" stroke-linejoin="round"></path>
    <rect x="101.7" y="476.83" width="266.67" height="9.95" transform="translate(716.84 246.77) rotate(90)" fill="#fff" stroke="#002346" stroke-miterlimit="10"></rect>
    <rect x="262.28" y="212.67" width="146.35" height="92" rx="5.11" ry="5.11" fill="#000000" stroke="#002346" stroke-miterlimit="10"></rect>
    <path d="M326.52,253.24h17.33c3.41,0,6.18,2.77,6.18,6.18v53.21h-29.7v-53.21c0-3.41,2.77-6.18,6.18-6.18Z" fill="#ff3700" stroke="#002346" stroke-miterlimit="10"></path>
    <path d="M279.62,309.6h8.14c3.83,0,6.93,3.11,6.93,6.93v1.68h-22v-1.68c0-3.83,3.11-6.93,6.93-6.93Z" fill="#ff3700" stroke="#002346" stroke-miterlimit="10"></path>
    <rect x="205.1" y="338.52" width="504.16" height="9.95" fill="#e5e5e5" stroke="#002346" stroke-miterlimit="10"></rect>
    <rect x="197.64" y="318.62" width="519.08" height="19.9" fill="#fff" stroke="#002346" stroke-miterlimit="10"></rect>
    <rect x="304.43" y="312.63" width="60.98" height="5.58" fill="#000000" stroke="#002346" stroke-miterlimit="10"></rect>
    <rect x="570.67" y="276.23" width="33.53" height="3.27" fill="#fff" stroke="#002346" stroke-miterlimit="10"></rect>
    <rect x="637.77" y="314.13" width="54.03" height="4.62" fill="#e5e5e5" stroke="#002346" stroke-miterlimit="10"></rect>
    <rect x="655.94" y="308.45" width="16.96" height="5.68" fill="#ff3700" stroke="#002346" stroke-miterlimit="10"></rect>
    <path d="M642.08,202.72h1.54c3.69,0,6.69,3,6.69,6.69v13.04h-14.92v-13.04c0-3.69,3-6.69,6.69-6.69Z" fill="#ff3700" stroke="#002346" stroke-miterlimit="10"></path>
    <path d="M641.2,220.64h4.68c11.22,0,20.32,9.11,20.32,20.32v3.42h-45.32v-3.42c0-11.22,9.11-20.32,20.32-20.32Z" fill="#fff" stroke="#002346" stroke-miterlimit="10"></path>
    <g>
      <ellipse cx="273.29" cy="158.1" rx="15.63" ry="15" fill="#ff3700" stroke="#002346" stroke-miterlimit="10"></ellipse>
      <polyline points="265.98 160.48 272.13 164.68 280.6 151.51" fill="none" stroke="#002346" stroke-linecap="round" stroke-linejoin="round"></polyline>
    </g>
    <path d="M377.8,63.17s-17.49,2.64-22.49,16.06c-.11,.29-.19,.58-.28,.87-.44,1.57-2.57,8-8.82,12.27-1.93,1.32-3.72,2.86-5.24,4.64-1.18,1.37-2.49,3.09-3.64,5.07-3.45,5.88-3.75,13.07-.86,19.25,1.49,3.18,3.92,7.36,7.83,12.22,0,0,3.38,3.38,6.09,9.64,0,0,10.2,18.72,35.49,8.81,2.78-1.09,5.77-1.55,8.74-1.32,9.87,.74,32.64-.42,32.91-26.78,0,0-1.19-8.92,1.31-15.33,.79-2.03,1.4-4.13,1.7-6.29,.95-6.92,.23-19.06-14.85-23.89,0,0-5.36-.87-9.91-5.42-1.23-1.23-2.53-2.37-3.96-3.36-4.76-3.33-14.71-9.02-24.03-6.44Z" fill="#fff" stroke="#002346" stroke-miterlimit="10"></path>
    <polygon points="358.55 95.87 359.08 126.43 406.78 126.16 406.56 95.78 358.55 95.87" fill="#000000" stroke="#002346" stroke-miterlimit="10"></polygon>
    <g>
      <circle cx="383.67" cy="95.13" r="6.63" fill="#ff3700" stroke="#002346" stroke-miterlimit="10"></circle>
      <path d="M381.56,91.85v-.98h2.21v8.52h-1.08v-7.54h-1.13Z" fill="#002346"></path>
    </g>
    <rect x="478.31" y="113.6" width="35.32" height="55.12" rx="17.66" ry="17.66" transform="translate(-14.12 65.56) rotate(-7.46)" fill="#f0b1bf" stroke="#002346" stroke-miterlimit="10"></rect>
    <path d="M477.25,134.18s-19.19-27.88,4.27-24.35c0,0,6.13-18.03,29.54,3.28,0,0,12.73-3.53,11.51,20.3,0,0-.24,11.18-6.02,20.05,0,0-.39-3.06-.31-6.07l-6.02-9.4s-4.87-4.07-6.39-10.76c0,0-13.01,5.19-25.87-1.59,0,0-1.36,3.41-.72,8.54Z" fill="#002346" stroke="#002346" stroke-miterlimit="10"></path>
    <ellipse cx="514.44" cy="141.01" rx="7.8" ry="5.01" transform="translate(240.7 598.84) rotate(-74.45)" fill="#f0b1bf" stroke="#002346" stroke-miterlimit="10"></ellipse>
    <ellipse cx="498.04" cy="142.08" rx="1.54" ry="2.52" fill="#002346" stroke="#002346" stroke-miterlimit="10"></ellipse>
    <ellipse cx="481.79" cy="144.59" rx="1.54" ry="2.52" fill="#002346" stroke="#002346" stroke-miterlimit="10"></ellipse>
    <path d="M480.25,134.91s-1.4,1.07-2.14,3.21" fill="none" stroke="#002346" stroke-linecap="round" stroke-linejoin="round"></path>
    <path d="M492.67,134.91s4.56,1.07,6.92,3.97" fill="none" stroke="#002346" stroke-linecap="round" stroke-linejoin="round"></path>
    <polyline points="489.58 144.59 488.97 154.64 492.02 154.64" fill="none" stroke="#002346" stroke-linecap="round" stroke-linejoin="round"></polyline>
    <ellipse cx="494.27" cy="161.39" rx="3.77" ry="1.14" transform="translate(-16.76 65.51) rotate(-7.46)" fill="#fff" stroke="#002346" stroke-miterlimit="10"></ellipse>
    <path d="M457.18,191.69l8.75-18.26s1.17-4.51,4.51-3.51c0,0,2.34-4.84,6.34-3.34,0,0,4.97-6.51,8.74-6.34,0,0,10.03,0,10.45,2.67,0,0,.95,2.85-8.12,3.01,0,0,6.26,7.13,3.81,9.74-.22,.24-.53,.38-.85,.4-.62,.05-1.81-.08-3.42-1.23-.02-.02-.05,0-.04,.02,.42,.77,3.24,6.33-1.72,9.27l-9.68,7.57-7.85,15.97s-5.48-5.55-10.92-15.97Z" fill="#f0b1bf" stroke="#002346" stroke-miterlimit="10"></path>
    <path d="M473.44,187.28s2.36-4.4,1.25-8.85c0,0,2.76-2,2.76,1.84,0,0-.33,4.68,1.5,4.68,0,0,2.11,.42,3.31-2.84,.88-2.38,.64-5.04-.6-7.24-.42-.74-.97-1.56-1.7-2.44" fill="none" stroke="#002346" stroke-linecap="round" stroke-linejoin="round"></path>
    <path d="M481.29,168.25s7.74-1.18,6.01,6.51" fill="none" stroke="#002346" stroke-linecap="round" stroke-linejoin="round"></path>
    <path d="M520.36,261.59l-11.36-4.16-30.68-11.94c-.83-.32-1.77,.11-2.05,.96l-8.99,26.96c-.27,.82,.17,1.71,.99,1.98l53.52,19.51" fill="#ff3700" stroke="#002346" stroke-linecap="round" stroke-linejoin="round"></path>
    <polyline points="358.55 95.87 382.3 113.39 406.56 95.78" fill="none" stroke="#002346" stroke-linecap="round" stroke-linejoin="round"></polyline>
    <line x1="374.8" y1="108.89" x2="359.08" y2="126.43" fill="none" stroke="#002346" stroke-linecap="round" stroke-linejoin="round"></line>
    <line x1="389.81" y1="108.36" x2="406.78" y2="126.16" fill="none" stroke="#002346" stroke-linecap="round" stroke-linejoin="round"></line>
  </g>
  <g>
    <path d="M175.97,511.63s-3.03,44.29,28.86,32.11c3.57-1.36,6.46-4.2,7.61-7.84,2.14-6.81-1.1-17.61-36.47-24.27Z" fill="#7ccf92" stroke="#002346" stroke-miterlimit="10"></path>
    <path d="M261.69,524.33s-22.8,3.66-19.88,15.16c.81,3.18,3.39,5.64,6.57,6.46,5.19,1.34,13.31-.03,13.31-21.62Z" fill="#7ccf92" stroke="#002346" stroke-miterlimit="10"></path>
    <path d="M238.06,502.94c-2.73-7.49-1.86-18.53,14.91-31,0,0,19.05-11.91,39.69-13.49l-2.38,29.37s-.33,43.82-40.1,27.5c-5.56-2.28-10.05-6.73-12.11-12.38Z" fill="#7ccf92" stroke="#002346" stroke-miterlimit="10"></path>
    <path d="M274.39,566.51c0,1.98-.8,3.76-2.1,5.06-1.29,1.29-3.08,2.09-5.05,2.09h-82.55c-3.94,0-7.14-3.19-7.14-7.14,0-1.97,.8-3.76,2.1-5.05,1.29-1.29,3.08-2.1,5.05-2.1h82.55c3.94,0,7.14,3.2,7.14,7.14Z" fill="#fff" stroke="#002346" stroke-miterlimit="10"></path>
    <path d="M266.4,573.65l-4.53,25.97c-2.09,11.99-12.5,20.75-24.68,20.75h-21.84c-11.97,0-22.26-8.46-24.58-20.2l-5.23-26.51h80.86Z" fill="#000000" stroke="#002346" stroke-miterlimit="10"></path>
    <g>
      <path d="M156.13,393.37s-33.36,123.43,44.65,109c12.47-2.31,23.44-10.03,29.08-21.39,9.46-19.05,9.62-47.92-73.72-87.61Z" fill="#7ccf92" stroke="#002346" stroke-miterlimit="10"></path>
      <path d="M169.62,413.21s48.42,44.45,53.97,145.25" fill="none" stroke="#002346" stroke-linecap="round" stroke-linejoin="round"></path>
      <path d="M175.18,474.33s19.96-2.72,31.81,2.21" fill="none" stroke="#002346" stroke-linecap="round" stroke-linejoin="round"></path>
      <path d="M212.48,445.75s-7.14,7.03-9.12,18.99" fill="none" stroke="#002346" stroke-linecap="round" stroke-linejoin="round"></path>
      <path d="M176.77,444.17s8.28-1.36,18.43,6.07" fill="none" stroke="#002346" stroke-linecap="round" stroke-linejoin="round"></path>
      <path d="M185.5,417.18s-1.81,6.69,1.08,17.63" fill="none" stroke="#002346" stroke-linecap="round" stroke-linejoin="round"></path>
    </g>
    <path d="M226.86,559.35s12.61-59.63,58.65-94.55" fill="none" stroke="#002346" stroke-linecap="round" stroke-linejoin="round"></path>
    <path d="M250.73,504.04s10.17-4.31,18.9,2.83" fill="none" stroke="#002346" stroke-linecap="round" stroke-linejoin="round"></path>
    <path d="M261.43,488.12s8.2-7.44,16.93-5.86" fill="none" stroke="#002346" stroke-linecap="round" stroke-linejoin="round"></path>
    <line x1="269.63" y1="467.98" x2="270.21" y2="477.97" fill="none" stroke="#002346" stroke-linecap="round" stroke-linejoin="round"></line>
    <path d="M253.76,483.85s2.73,5.71,1.36,12.78" fill="none" stroke="#002346" stroke-linecap="round" stroke-linejoin="round"></path>
    <path d="M182.32,516.39s28.53,18.67,34.11,43.07" fill="none" stroke="#002346" stroke-linecap="round" stroke-linejoin="round"></path>
    <path d="M193.44,535.44s4.63-2.03,10.65,.97" fill="none" stroke="#002346" stroke-linecap="round" stroke-linejoin="round"></path>
    <path d="M199.79,523.54s-1.52,2.87-.36,7.39" fill="none" stroke="#002346" stroke-linecap="round" stroke-linejoin="round"></path>
    <path d="M186.29,525.92s3.17-1.59,8.22,.62" fill="none" stroke="#002346" stroke-linecap="round" stroke-linejoin="round"></path>
    <path d="M256.14,529.09s-14.29,11.91-18.26,30.16" fill="none" stroke="#002346" stroke-linecap="round" stroke-linejoin="round"></path>
  </g>
</svg>
