<?xml version="1.0" standalone="no"?>
<svg xmlns:xlink="http://www.w3.org/1999/xlink" id="wave" style="transform:rotate(0deg); transition: 0.3s" viewBox="0 0 1440 460" version="1.1" xmlns="http://www.w3.org/2000/svg"><defs><linearGradient id="sw-gradient-0" x1="0" x2="0" y1="1" y2="0"><stop stop-color="rgba(184.74, 184.74, 184.74, 1)" offset="0%"/><stop stop-color="rgba(0, 0, 0, 1)" offset="100%"/></linearGradient></defs><path style="transform:translate(0, 0px); opacity:1" fill="url(#sw-gradient-0)" d="M0,92L60,145.7C120,199,240,307,360,314.3C480,322,600,230,720,207C840,184,960,230,1080,253C1200,276,1320,276,1440,276C1560,276,1680,276,1800,291.3C1920,307,2040,337,2160,337.3C2280,337,2400,307,2520,283.7C2640,261,2760,245,2880,253C3000,261,3120,291,3240,291.3C3360,291,3480,261,3600,237.7C3720,215,3840,199,3960,161C4080,123,4200,61,4320,69C4440,77,4560,153,4680,161C4800,169,4920,107,5040,76.7C5160,46,5280,46,5400,76.7C5520,107,5640,169,5760,207C5880,245,6000,261,6120,260.7C6240,261,6360,245,6480,199.3C6600,153,6720,77,6840,99.7C6960,123,7080,245,7200,276C7320,307,7440,245,7560,199.3C7680,153,7800,123,7920,130.3C8040,138,8160,184,8280,168.7C8400,153,8520,77,8580,38.3L8640,0L8640,460L8580,460C8520,460,8400,460,8280,460C8160,460,8040,460,7920,460C7800,460,7680,460,7560,460C7440,460,7320,460,7200,460C7080,460,6960,460,6840,460C6720,460,6600,460,6480,460C6360,460,6240,460,6120,460C6000,460,5880,460,5760,460C5640,460,5520,460,5400,460C5280,460,5160,460,5040,460C4920,460,4800,460,4680,460C4560,460,4440,460,4320,460C4200,460,4080,460,3960,460C3840,460,3720,460,3600,460C3480,460,3360,460,3240,460C3120,460,3000,460,2880,460C2760,460,2640,460,2520,460C2400,460,2280,460,2160,460C2040,460,1920,460,1800,460C1680,460,1560,460,1440,460C1320,460,1200,460,1080,460C960,460,840,460,720,460C600,460,480,460,360,460C240,460,120,460,60,460L0,460Z"/><defs><linearGradient id="sw-gradient-1" x1="0" x2="0" y1="1" y2="0"><stop stop-color="rgba(0, 0, 0, 1)" offset="0%"/><stop stop-color="rgba(111.883, 111.883, 111.883, 1)" offset="100%"/></linearGradient></defs><path style="transform:translate(0, 50px); opacity:0.9" fill="url(#sw-gradient-1)" d="M0,0L60,46C120,92,240,184,360,245.3C480,307,600,337,720,299C840,261,960,153,1080,92C1200,31,1320,15,1440,23C1560,31,1680,61,1800,92C1920,123,2040,153,2160,161C2280,169,2400,153,2520,130.3C2640,107,2760,77,2880,92C3000,107,3120,169,3240,214.7C3360,261,3480,291,3600,306.7C3720,322,3840,322,3960,268.3C4080,215,4200,107,4320,92C4440,77,4560,153,4680,153.3C4800,153,4920,77,5040,69C5160,61,5280,123,5400,191.7C5520,261,5640,337,5760,314.3C5880,291,6000,169,6120,145.7C6240,123,6360,199,6480,222.3C6600,245,6720,215,6840,184C6960,153,7080,123,7200,92C7320,61,7440,31,7560,76.7C7680,123,7800,245,7920,268.3C8040,291,8160,215,8280,176.3C8400,138,8520,138,8580,138L8640,138L8640,460L8580,460C8520,460,8400,460,8280,460C8160,460,8040,460,7920,460C7800,460,7680,460,7560,460C7440,460,7320,460,7200,460C7080,460,6960,460,6840,460C6720,460,6600,460,6480,460C6360,460,6240,460,6120,460C6000,460,5880,460,5760,460C5640,460,5520,460,5400,460C5280,460,5160,460,5040,460C4920,460,4800,460,4680,460C4560,460,4440,460,4320,460C4200,460,4080,460,3960,460C3840,460,3720,460,3600,460C3480,460,3360,460,3240,460C3120,460,3000,460,2880,460C2760,460,2640,460,2520,460C2400,460,2280,460,2160,460C2040,460,1920,460,1800,460C1680,460,1560,460,1440,460C1320,460,1200,460,1080,460C960,460,840,460,720,460C600,460,480,460,360,460C240,460,120,460,60,460L0,460Z"/><defs><linearGradient id="sw-gradient-2" x1="0" x2="0" y1="1" y2="0"><stop stop-color="rgba(171.079, 171.079, 171.079, 1)" offset="0%"/><stop stop-color="rgba(34.472, 34.472, 34.472, 1)" offset="100%"/></linearGradient></defs><path style="transform:translate(0, 100px); opacity:0.8" fill="url(#sw-gradient-2)" d="M0,138L60,184C120,230,240,322,360,322C480,322,600,230,720,199.3C840,169,960,199,1080,199.3C1200,199,1320,169,1440,153.3C1560,138,1680,138,1800,153.3C1920,169,2040,199,2160,222.3C2280,245,2400,261,2520,260.7C2640,261,2760,245,2880,260.7C3000,276,3120,322,3240,337.3C3360,353,3480,337,3600,314.3C3720,291,3840,261,3960,253C4080,245,4200,261,4320,245.3C4440,230,4560,184,4680,161C4800,138,4920,138,5040,115C5160,92,5280,46,5400,92C5520,138,5640,276,5760,291.3C5880,307,6000,199,6120,145.7C6240,92,6360,92,6480,122.7C6600,153,6720,215,6840,207C6960,199,7080,123,7200,92C7320,61,7440,77,7560,92C7680,107,7800,123,7920,130.3C8040,138,8160,138,8280,153.3C8400,169,8520,199,8580,214.7L8640,230L8640,460L8580,460C8520,460,8400,460,8280,460C8160,460,8040,460,7920,460C7800,460,7680,460,7560,460C7440,460,7320,460,7200,460C7080,460,6960,460,6840,460C6720,460,6600,460,6480,460C6360,460,6240,460,6120,460C6000,460,5880,460,5760,460C5640,460,5520,460,5400,460C5280,460,5160,460,5040,460C4920,460,4800,460,4680,460C4560,460,4440,460,4320,460C4200,460,4080,460,3960,460C3840,460,3720,460,3600,460C3480,460,3360,460,3240,460C3120,460,3000,460,2880,460C2760,460,2640,460,2520,460C2400,460,2280,460,2160,460C2040,460,1920,460,1800,460C1680,460,1560,460,1440,460C1320,460,1200,460,1080,460C960,460,840,460,720,460C600,460,480,460,360,460C240,460,120,460,60,460L0,460Z"/><defs><linearGradient id="sw-gradient-3" x1="0" x2="0" y1="1" y2="0"><stop stop-color="rgba(193.847, 193.847, 193.847, 1)" offset="0%"/><stop stop-color="rgba(39.026, 39.026, 39.026, 1)" offset="100%"/></linearGradient></defs><path style="transform:translate(0, 150px); opacity:0.7" fill="url(#sw-gradient-3)" d="M0,276L60,245.3C120,215,240,153,360,168.7C480,184,600,276,720,314.3C840,353,960,337,1080,276C1200,215,1320,107,1440,107.3C1560,107,1680,215,1800,283.7C1920,353,2040,383,2160,368C2280,353,2400,291,2520,260.7C2640,230,2760,230,2880,245.3C3000,261,3120,291,3240,299C3360,307,3480,291,3600,260.7C3720,230,3840,184,3960,184C4080,184,4200,230,4320,268.3C4440,307,4560,337,4680,345C4800,353,4920,337,5040,322C5160,307,5280,291,5400,299C5520,307,5640,337,5760,352.7C5880,368,6000,368,6120,375.7C6240,383,6360,399,6480,383.3C6600,368,6720,322,6840,299C6960,276,7080,276,7200,291.3C7320,307,7440,337,7560,337.3C7680,337,7800,307,7920,291.3C8040,276,8160,276,8280,253C8400,230,8520,184,8580,161L8640,138L8640,460L8580,460C8520,460,8400,460,8280,460C8160,460,8040,460,7920,460C7800,460,7680,460,7560,460C7440,460,7320,460,7200,460C7080,460,6960,460,6840,460C6720,460,6600,460,6480,460C6360,460,6240,460,6120,460C6000,460,5880,460,5760,460C5640,460,5520,460,5400,460C5280,460,5160,460,5040,460C4920,460,4800,460,4680,460C4560,460,4440,460,4320,460C4200,460,4080,460,3960,460C3840,460,3720,460,3600,460C3480,460,3360,460,3240,460C3120,460,3000,460,2880,460C2760,460,2640,460,2520,460C2400,460,2280,460,2160,460C2040,460,1920,460,1800,460C1680,460,1560,460,1440,460C1320,460,1200,460,1080,460C960,460,840,460,720,460C600,460,480,460,360,460C240,460,120,460,60,460L0,460Z"/></svg>